<svg width="790" height="512" viewBox="0 0 790 512" fill="none" xmlns="http://www.w3.org/2000/svg">
<g clip-path="url(#clip0_103_6632)">
<path d="M0 0H790V170.7H0V0Z" fill="#FF9933"/>
<path d="M0 170.7H790V341.3H0V170.7Z" fill="white"/>
<path d="M0 341.3H790V512H0V341.3Z" fill="#128807"/>
<path d="M383.625 324.294C421.328 324.294 451.892 293.73 451.892 256.027C451.892 218.324 421.328 187.76 383.625 187.76C345.922 187.76 315.358 218.324 315.358 256.027C315.358 293.73 345.922 324.294 383.625 324.294Z" fill="#000088"/>
<path d="M383.625 315.76C416.615 315.76 443.358 289.017 443.358 256.027C443.358 223.037 416.615 196.294 383.625 196.294C350.635 196.294 323.892 223.037 323.892 256.027C323.892 289.017 350.635 315.76 383.625 315.76Z" fill="white"/>
<path d="M383.624 267.973C390.222 267.973 395.571 262.625 395.571 256.027C395.571 249.429 390.222 244.08 383.624 244.08C377.026 244.08 371.678 249.429 371.678 256.027C371.678 262.625 377.026 267.973 383.624 267.973Z" fill="#000088"/>
<path d="M442.445 266.892C444.127 267.113 445.67 265.929 445.892 264.247C446.113 262.565 444.929 261.022 443.247 260.8C441.565 260.579 440.022 261.763 439.8 263.445C439.579 265.127 440.763 266.67 442.445 266.892Z" fill="#000088"/>
<path d="M383.625 315.76L385.673 279.92L383.625 262.854L381.577 279.92L383.625 315.76Z" fill="#000088"/>
<path d="M437.629 281.745C439.196 282.395 440.993 281.65 441.642 280.083C442.292 278.515 441.547 276.718 439.98 276.069C438.412 275.42 436.615 276.164 435.966 277.732C435.317 279.299 436.061 281.096 437.629 281.745Z" fill="#000088"/>
<path d="M368.165 313.725L379.419 279.636L381.858 262.621L375.463 278.576L368.165 313.725Z" fill="#000088"/>
<path d="M429.132 294.846C430.479 295.879 432.407 295.625 433.44 294.279C434.473 292.933 434.219 291.005 432.873 289.972C431.527 288.939 429.598 289.193 428.565 290.539C427.533 291.885 427.786 293.813 429.132 294.846Z" fill="#000088"/>
<path d="M353.759 307.758L373.452 277.743L380.212 261.939L369.905 275.695L353.759 307.758Z" fill="#000088"/>
<path d="M417.534 305.302C418.567 306.648 420.495 306.902 421.841 305.869C423.187 304.836 423.441 302.908 422.408 301.562C421.375 300.216 419.447 299.962 418.101 300.995C416.755 302.027 416.501 303.956 417.534 305.302Z" fill="#000088"/>
<path d="M341.387 298.265L368.178 274.37L378.798 260.854L365.282 271.474L341.387 298.265Z" fill="#000088"/>
<path d="M403.625 312.399C404.275 313.967 406.072 314.711 407.639 314.062C409.206 313.412 409.951 311.615 409.302 310.048C408.652 308.48 406.855 307.736 405.288 308.385C403.72 309.035 402.976 310.832 403.625 312.399Z" fill="#000088"/>
<path d="M331.894 285.894L363.956 269.747L377.712 259.44L361.908 266.2L331.894 285.894Z" fill="#000088"/>
<path d="M388.354 315.655C388.576 317.337 390.119 318.521 391.801 318.3C393.483 318.078 394.667 316.535 394.446 314.853C394.224 313.171 392.681 311.987 390.999 312.208C389.317 312.43 388.133 313.973 388.354 315.655Z" fill="#000088"/>
<path d="M325.927 271.487L361.076 264.189L377.031 257.794L360.016 260.233L325.927 271.487Z" fill="#000088"/>
<path d="M372.761 314.847C372.539 316.529 373.723 318.072 375.405 318.294C377.087 318.515 378.631 317.331 378.852 315.649C379.073 313.967 377.889 312.424 376.207 312.202C374.525 311.981 372.982 313.165 372.761 314.847Z" fill="#000088"/>
<path d="M323.892 256.027L359.732 258.075L376.799 256.027L359.732 253.979L323.892 256.027Z" fill="#000088"/>
<path d="M357.907 310.031C357.258 311.598 358.002 313.395 359.569 314.044C361.137 314.694 362.934 313.949 363.583 312.382C364.232 310.814 363.488 309.017 361.921 308.368C360.353 307.719 358.556 308.463 357.907 310.031Z" fill="#000088"/>
<path d="M325.927 240.567L360.015 251.821L377.03 254.26L361.075 247.865L325.927 240.567Z" fill="#000088"/>
<path d="M344.805 301.534C343.772 302.88 344.026 304.809 345.372 305.842C346.718 306.874 348.647 306.621 349.68 305.275C350.713 303.929 350.459 302 349.113 300.967C347.767 299.934 345.838 300.188 344.805 301.534Z" fill="#000088"/>
<path d="M331.895 226.16L361.909 245.854L377.713 252.614L363.957 242.307L331.895 226.16Z" fill="#000088"/>
<path d="M334.351 289.937C333.005 290.97 332.751 292.898 333.784 294.244C334.817 295.59 336.745 295.844 338.091 294.811C339.437 293.778 339.691 291.85 338.658 290.504C337.625 289.158 335.697 288.904 334.351 289.937Z" fill="#000088"/>
<path d="M341.387 213.789L365.282 240.58L378.798 251.2L368.178 237.684L341.387 213.789Z" fill="#000088"/>
<path d="M327.253 276.028C325.686 276.677 324.941 278.474 325.59 280.042C326.24 281.609 328.037 282.353 329.604 281.704C331.172 281.055 331.916 279.258 331.267 277.69C330.618 276.123 328.82 275.379 327.253 276.028Z" fill="#000088"/>
<path d="M353.758 204.296L369.905 236.359L380.212 250.115L373.452 234.311L353.758 204.296Z" fill="#000088"/>
<path d="M323.997 260.756C322.315 260.978 321.131 262.521 321.352 264.203C321.574 265.885 323.117 267.069 324.799 266.848C326.481 266.626 327.665 265.083 327.444 263.401C327.222 261.719 325.679 260.535 323.997 260.756Z" fill="#000088"/>
<path d="M368.164 198.329L375.462 233.478L381.858 249.433L379.419 232.418L368.164 198.329Z" fill="#000088"/>
<path d="M324.805 245.162C323.123 244.941 321.58 246.125 321.358 247.807C321.137 249.489 322.321 251.032 324.003 251.254C325.685 251.475 327.228 250.291 327.45 248.609C327.671 246.927 326.487 245.384 324.805 245.162Z" fill="#000088"/>
<path d="M383.625 196.294L381.577 232.134L383.625 249.2L385.673 232.134L383.625 196.294Z" fill="#000088"/>
<path d="M329.621 230.309C328.054 229.659 326.257 230.404 325.608 231.971C324.958 233.539 325.703 235.336 327.27 235.985C328.838 236.634 330.635 235.89 331.284 234.322C331.933 232.755 331.189 230.958 329.621 230.309Z" fill="#000088"/>
<path d="M399.085 198.329L387.831 232.418L385.392 249.433L391.787 233.478L399.085 198.329Z" fill="#000088"/>
<path d="M338.118 217.208C336.771 216.175 334.843 216.429 333.81 217.775C332.777 219.121 333.031 221.049 334.377 222.082C335.723 223.115 337.652 222.861 338.685 221.515C339.717 220.169 339.464 218.241 338.118 217.208Z" fill="#000088"/>
<path d="M413.491 204.297L393.798 234.311L387.038 250.115L397.345 236.359L413.491 204.297Z" fill="#000088"/>
<path d="M349.716 206.752C348.683 205.406 346.755 205.152 345.409 206.185C344.063 207.218 343.809 209.146 344.842 210.492C345.875 211.838 347.803 212.092 349.149 211.06C350.495 210.027 350.749 208.098 349.716 206.752Z" fill="#000088"/>
<path d="M425.863 213.789L399.072 237.684L388.452 251.2L401.968 240.58L425.863 213.789Z" fill="#000088"/>
<path d="M363.625 199.654C362.975 198.087 361.178 197.343 359.611 197.992C358.044 198.641 357.299 200.438 357.948 202.006C358.598 203.573 360.395 204.317 361.962 203.668C363.53 203.019 364.274 201.222 363.625 199.654Z" fill="#000088"/>
<path d="M435.356 226.16L403.294 242.306L389.538 252.613L405.342 245.854L435.356 226.16Z" fill="#000088"/>
<path d="M378.896 196.399C378.674 194.717 377.131 193.532 375.449 193.754C373.767 193.975 372.583 195.518 372.804 197.201C373.026 198.883 374.569 200.067 376.251 199.845C377.933 199.624 379.117 198.081 378.896 196.399Z" fill="#000088"/>
<path d="M441.323 240.566L406.174 247.864L390.219 254.26L407.234 251.821L441.323 240.566Z" fill="#000088"/>
<path d="M394.489 197.206C394.711 195.524 393.527 193.981 391.845 193.76C390.163 193.538 388.619 194.722 388.398 196.404C388.177 198.087 389.361 199.63 391.043 199.851C392.725 200.073 394.268 198.889 394.489 197.206Z" fill="#000088"/>
<path d="M443.358 256.027L407.518 253.979L390.451 256.027L407.518 258.075L443.358 256.027Z" fill="#000088"/>
<path d="M409.343 202.023C409.992 200.455 409.248 198.658 407.681 198.009C406.113 197.36 404.316 198.104 403.667 199.672C403.018 201.239 403.762 203.036 405.329 203.685C406.897 204.335 408.694 203.59 409.343 202.023Z" fill="#000088"/>
<path d="M441.323 271.487L407.235 260.233L390.22 257.794L406.175 264.189L441.323 271.487Z" fill="#000088"/>
<path d="M422.445 210.519C423.478 209.173 423.224 207.245 421.878 206.212C420.532 205.179 418.603 205.433 417.57 206.779C416.537 208.125 416.791 210.053 418.137 211.086C419.483 212.119 421.412 211.865 422.445 210.519Z" fill="#000088"/>
<path d="M435.355 285.893L405.341 266.2L389.537 259.44L403.293 269.747L435.355 285.893Z" fill="#000088"/>
<path d="M432.899 222.117C434.245 221.084 434.499 219.155 433.466 217.809C432.433 216.463 430.505 216.21 429.159 217.242C427.813 218.275 427.559 220.204 428.592 221.55C429.625 222.896 431.553 223.15 432.899 222.117Z" fill="#000088"/>
<path d="M425.863 298.264L401.968 271.473L388.452 260.854L399.072 274.37L425.863 298.264Z" fill="#000088"/>
<path d="M439.997 236.026C441.564 235.376 442.309 233.579 441.66 232.012C441.01 230.444 439.213 229.7 437.646 230.349C436.078 230.999 435.334 232.796 435.983 234.363C436.632 235.931 438.43 236.675 439.997 236.026Z" fill="#000088"/>
<path d="M413.492 307.757L397.345 275.695L387.038 261.939L393.798 277.743L413.492 307.757Z" fill="#000088"/>
<path d="M443.253 251.297C444.935 251.076 446.119 249.533 445.898 247.851C445.676 246.169 444.133 244.985 442.451 245.206C440.769 245.427 439.585 246.971 439.806 248.653C440.028 250.335 441.571 251.519 443.253 251.297Z" fill="#000088"/>
<path d="M399.086 313.725L391.788 278.576L385.392 262.621L387.831 279.636L399.086 313.725Z" fill="#000088"/>
</g>
<defs>
<clipPath id="clip0_103_6632">
<rect width="790" height="512" fill="white"/>
</clipPath>
</defs>
</svg>
